<?xml version="1.0" encoding="UTF-8"?><svg id="Layer_1" xmlns="http://www.w3.org/2000/svg" viewBox="0 0 434.66 291.87"><defs><style>.cls-1{fill:#fdcd0b;}.cls-2{fill:#231f20;}.cls-3{fill:#502566;}</style></defs><path class="cls-3" d="m13.36,187.79v-2.06c0-2.83-1.39-4.55-3.55-4.55-2.56,0-3.84,2.33-3.84,6.61v20.22c0,3.23,1.56,5.28,3.84,5.28,1.55,0,2.83-.22,3.55-.38v-11.78h-3.67v-4.67h9.22v20.17c-2.16.5-6,1-9.16,1-7.06,0-9.33-3.72-9.33-9.94v-20.28c0-7.5,2.28-10.56,9.44-10.56,5.94,0,9.05,2.17,9.05,7.28v3.66h-5.55"/><polyline class="cls-3" points="25.26 177.17 30.81 177.17 30.81 212.63 40.14 212.63 40.14 217.29 25.26 217.29 25.26 177.17"/><polyline class="cls-3" points="44.98 177.17 60.09 177.17 60.09 181.85 50.54 181.85 50.54 194.4 59.53 194.4 59.53 199.06 50.54 199.06 50.54 212.63 60.09 212.63 60.09 217.29 44.98 217.29 44.98 177.17"/><polyline class="cls-3" points="64.71 177.17 72.37 177.17 78.93 210.52 79.04 210.52 79.04 177.17 84.27 177.17 84.27 217.29 76.27 217.29 69.7 183.07 69.59 183.07 69.59 217.29 64.71 217.29 64.71 177.17"/><path class="cls-3" d="m90.6,177.17h9.67c6.83,0,8,2.39,8,9.72,0,7.89-1.28,9.17-5.05,9.67v.11c4.44.83,5.33,2.33,5.33,9.17,0,8.67-1.11,11.44-9.22,11.44h-8.72v-40.11m5.55,17.23h3.22c3.33,0,3.66-.66,3.66-7.22,0-4.56-.72-5.67-4.27-5.67h-2.61v12.89Zm0,18.55h3.44c3.17,0,3.72-.94,3.72-7.28s-.5-6.95-3.55-6.95h-3.61v14.22Z"/><path class="cls-3" d="m114.44,177.17h8.61c8.11,0,8.94,2.17,8.94,10.95,0,5.39-.72,7.72-5.28,9.11v.11c3.78.39,5.06,2.33,5.06,6.11v8.72c0,1.44,0,3.44.33,5.11h-5.22c-.56-.99-.66-2-.66-3.61v-9.06c0-3.77-.66-4.77-4.33-4.77h-1.89v17.44h-5.55v-40.11m5.55,18h1.44c4.39,0,5-.83,5-6.83s-.33-6.5-3.77-6.5h-2.67v13.33Z"/><path class="cls-3" d="m138.11,187.4c0-5.61,1.83-10.56,9.39-10.56,7.17,0,9.45,3.72,9.45,9.95v20.28c0,5.61-1.84,10.56-9.45,10.56-7.11,0-9.39-3.72-9.39-9.94v-20.28m5.55,20.61c0,3.45,1.56,5.28,3.83,5.28s3.89-1.83,3.89-5.28v-21.06c0-3.94-1.33-5.77-3.89-5.77s-3.83,1.83-3.83,5.77v21.06Z"/><path class="cls-3" d="m162.95,187.4c0-5.61,1.84-10.56,9.39-10.56,7.16,0,9.44,3.72,9.44,9.95v20.28c0,5.61-1.83,10.56-9.44,10.56-7.12,0-9.39-3.72-9.39-9.94v-20.28m5.55,20.61c0,3.45,1.56,5.28,3.84,5.28s3.89-1.83,3.89-5.28v-21.06c0-3.94-1.34-5.77-3.89-5.77s-3.84,1.83-3.84,5.77v21.06Z"/><polyline class="cls-3" points="187.95 177.17 193.51 177.17 193.51 195.46 193.62 195.46 202.4 177.17 207.95 177.17 198.62 196.01 208.62 217.29 202.4 217.29 193.62 197.23 193.51 197.23 193.51 217.29 187.95 217.29 187.95 177.17"/><polyline class="cls-3" points="0 229.12 4.94 229.12 4.94 244.43 11.51 244.43 11.51 229.12 16.45 229.12 16.45 264.77 11.51 264.77 11.51 248.57 4.94 248.57 4.94 264.77 0 264.77 0 229.12"/><rect class="cls-3" x="22.42" y="229.12" width="4.93" height="35.65"/><path class="cls-3" d="m44.83,238.56v-1.83c0-2.52-1.23-4.05-3.15-4.05-2.28,0-3.41,2.07-3.41,5.88v17.97c0,2.86,1.38,4.69,3.41,4.69,1.38,0,2.51-.19,3.15-.34v-10.47h-3.25v-4.15h8.2v17.92c-1.93.44-5.33.89-8.15.89-6.27,0-8.3-3.31-8.3-8.84v-18.02c0-6.67,2.03-9.38,8.4-9.38,5.28,0,8.05,1.92,8.05,6.46v3.26h-4.94"/><polyline class="cls-3" points="55.9 229.12 60.84 229.12 60.84 244.43 67.4 244.43 67.4 229.12 72.34 229.12 72.34 264.77 67.4 264.77 67.4 248.57 60.84 248.57 60.84 264.77 55.9 264.77 55.9 229.12"/><path class="cls-3" d="m89.57,254.46h4.94v2.91c0,2.37.89,3.85,2.86,3.85,2.62,0,3.26-1.77,3.26-4.1,0-3.01-.15-4-5.29-9.08-3.16-3.16-5.77-6.03-5.77-10.86,0-5.83,2.71-8.34,8.09-8.34,2.67,0,4.6.88,5.78,1.97.84.79,1.42,2.02,1.42,4.54v3.36h-4.64v-2.81c0-2.03-.84-3.21-2.77-3.21s-2.96,1.14-2.96,3.9c0,2.42.49,3.91,5.03,8.65,4.84,5.04,5.73,6.76,5.73,11.06,0,5.58-2.17,8.79-8.05,8.79-4.54,0-7.65-1.93-7.65-6.37v-4.24"/><path class="cls-3" d="m110.3,238.21c0-4.99,1.63-9.38,8.34-9.38,4.89,0,7.16,2.46,7.16,6.46v3.56h-4.63v-2.47c0-2.27-.79-3.71-2.87-3.71-2.57,0-3.07,1.83-3.07,6.12v17.48c0,4.2,1.34,4.93,2.92,4.93,1.83,0,3.02-1.28,3.02-4.25v-2.47h4.63v3.95c0,3.75-1.53,6.61-7.26,6.61-6.22,0-8.24-3.31-8.24-8.84v-18.02"/><polyline class="cls-3" points="130.69 229.12 135.63 229.12 135.63 244.43 142.19 244.43 142.19 229.12 147.14 229.12 147.14 264.77 142.19 264.77 142.19 248.57 135.63 248.57 135.63 264.77 130.69 264.77 130.69 229.12"/><path class="cls-3" d="m153.11,238.21c0-4.99,1.62-9.38,8.34-9.38s8.39,3.3,8.39,8.84v18.02c0,4.98-1.63,9.38-8.39,9.38-6.32,0-8.34-3.31-8.34-8.84v-18.02m4.94,18.32c0,3.06,1.38,4.69,3.4,4.69s3.46-1.63,3.46-4.69v-18.72c0-3.5-1.18-5.14-3.46-5.14s-3.4,1.64-3.4,5.14v18.72Z"/><path class="cls-3" d="m175.67,238.21c0-4.99,1.64-9.38,8.35-9.38s8.39,3.3,8.39,8.84v18.02c0,4.98-1.63,9.38-8.39,9.38-6.32,0-8.35-3.31-8.35-8.84v-18.02m4.94,18.32c0,3.06,1.38,4.69,3.4,4.69s3.45-1.63,3.45-4.69v-18.72c0-3.5-1.18-5.14-3.45-5.14s-3.4,1.64-3.4,5.14v18.72Z"/><polyline class="cls-3" points="198.38 229.12 203.32 229.12 203.32 260.62 211.62 260.62 211.62 264.77 198.38 264.77 198.38 229.12"/><path class="cls-1" d="m180.3,67.48l5.34,2.18,30.25-59.5-35.58,57.31m6.11,2.5l5.8,2.37,45.9-43.07-51.7,40.7Zm8.84,3.61l6.92,2.83,50.44-21.39-57.36,18.56Zm-20.68-8.46l5.39,2.21L188.62,0l-14.05,65.14Zm-6.27,2.26l5.37-2.25L159.62,0l8.68,67.39Zm-5.65,2.36l5.32-2.23-35.62-57.36,30.29,59.58Zm-16.26,6.81l6.87-2.88-57.62-18.65,50.76,21.52Zm9.77-4.09l5.77-2.42-51.8-40.77,46.02,43.19Z"/><path class="cls-2" d="m332.43,253.03l15.01-11.86c18.81-16.28,26.39-29.55,26.39-42.36,0-13.9-11.54-22.28-25.92-22.28-13.11,0-26.23,8.22-26.23,14.86,0,3.16,2.05,5.84,5.06,5.84,2.21,0,3.79-1.11,4.58-3.32,4.43-11.86,7.11-12.17,11.54-12.17,7.9,0,16.12,8.53,16.12,20.55,0,9.64-5.69,21.17-17.06,34.61-4.58,5.53-14.07,15.01-28.29,28.45h60.84l3.48-12.8h-29.71c-3.48,0-8.69.16-15.8.48m68.51-50.73c-2.21-1.43-5.37-3.16-9.64-4.9l2.69-5.38c2.69.32,6.01.48,10.12.48h24.81l3.79-12.8h-36.19l-14.86,27.34c11.54,3.16,24.97,15.49,30.19,21.65,6.16,7.43,9.16,16.12,9.16,24.5,0,15.01-7.11,26.39-19.44,31.45l-3.32,1.11c-1.1.47-1.58,1.1-1.58,1.57,0,.79.47,1.27,1.42,1.27,13.75-1.11,34.77-22.92,34.77-41.88,0-15.32-10.59-30.02-31.92-44.41Zm-116.2,50.25c-3.48,0-8.69.16-15.8.48l15.01-11.86c18.81-16.28,26.39-29.55,26.39-42.36,0-13.9-11.54-22.28-25.92-22.28-13.12,0-26.23,8.22-26.23,14.86,0,3.16,2.06,5.84,5.06,5.84,2.21,0,3.79-1.11,4.58-3.32,4.42-11.86,7.11-12.17,11.54-12.17,7.9,0,16.12,8.53,16.12,20.55,0,9.64-5.69,21.17-17.07,34.61-4.58,5.53-14.07,15.01-28.29,28.45h60.84l3.48-12.8h-29.71Zm93.12-107.7h-2.02v21.76h2.02v-21.76Zm46.43,21.76h2.02v-19.94h5.95v-1.83h-13.9v1.83h5.94v19.94Zm-24.14.24c3.2,0,6.07-1.04,8.62-3.13l-1.52-1.22c-2.1,1.68-4.47,2.53-7.1,2.53-2.84,0-5.26-.9-7.28-2.72-2.02-1.81-3.02-4.01-3.02-6.58s1.01-4.76,3.02-6.57c2.01-1.81,4.44-2.72,7.28-2.72,2.63,0,4.99.85,7.1,2.53l1.52-1.25c-2.54-2.08-5.41-3.12-8.62-3.12-3.41,0-6.32,1.08-8.74,3.25-2.41,2.17-3.61,4.8-3.61,7.87s1.21,5.7,3.61,7.87c2.42,2.17,5.33,3.25,8.74,3.25Zm-47.39-7.57h3.64l5.44,7.33h2.47l-5.51-7.62c1.09-.25,2.17-.85,3.26-1.83,1.56-1.41,2.34-3.11,2.34-5.11s-.79-3.68-2.34-5.1c-1.31-1.17-2.91-1.88-4.79-2.11h-6.54v21.76h2.02v-7.33Zm0-12.59h3.64c1.65,0,3.06.53,4.23,1.58,1.17,1.05,1.76,2.31,1.76,3.8s-.59,2.76-1.76,3.82c-1.17,1.06-2.58,1.58-4.23,1.58h-3.64v-10.77Zm-87.11,19.9h-.26c3.97,0,7.04-.99,9.24-2.97,2.41-2.17,3.62-4.8,3.62-7.88s-1.21-5.7-3.62-7.88c-2.19-1.98-5.27-2.97-9.24-2.97h.26v-.03h-2.03v21.76h2.03v-.03Zm0-19.86c3.22,0,5.73.81,7.53,2.44,2.01,1.82,3.01,4.01,3.01,6.58s-1.01,4.76-3.01,6.57c-1.8,1.62-4.31,2.44-7.53,2.44v-18.03Zm26.12-1.87h-2.02v21.76h2.02v-21.76Zm40.64,21.76h2.01v-19.94h5.95v-1.83h-13.91v1.83h5.95v19.94Zm-21.38.24c2.01,0,3.73-.64,5.16-1.92,1.43-1.28,2.15-2.84,2.15-4.67s-.71-3.34-2.14-4.62c-1.33-1.2-2.95-2.07-4.86-2.63-1.12-.47-2-.98-2.63-1.55-.65-.58-.97-1.28-.97-2.1s.32-1.54.96-2.11c.64-.58,1.42-.87,2.34-.87s1.69.29,2.33.86c.37.34.67.79.91,1.38l1.83-.65c-.28-.82-.72-1.49-1.31-1.98-1.04-.93-2.3-1.39-3.76-1.39s-2.74.47-3.77,1.41c-1.03.94-1.55,2.06-1.55,3.36s.51,2.44,1.53,3.37c1.02.93,2.39,1.64,4.11,2.16,1.36.5,2.51,1.17,3.45,2.01,1.03.93,1.54,2.05,1.54,3.35s-.52,2.47-1.55,3.4c-1.04.94-2.29,1.4-3.75,1.4s-2.7-.46-3.75-1.41c-.88-.8-1.41-1.87-1.58-3.2l-1.93.63c.26,1.53.95,2.81,2.09,3.83,1.42,1.29,3.15,1.93,5.17,1.93Z"/><path class="cls-2" d="m243.37,183.3c0-3.31-2.16-6.12-5.15-7.1v-40.24l51.55-20.38-115.62-47.3-112.99,47.3,115.62,44.67,56.83-22.47v38.42c-3,.97-5.16,3.78-5.16,7.1,0,3.64,2.59,6.66,6.04,7.33l-6.9,54.11s6.44,11.89,14.85,1l-4.95-55.13c3.37-.72,5.89-3.71,5.89-7.3Z"/></svg>